G04 (created by PCBNEW (2013-07-07 BZR 4022)-stable) date 16-09-2014 20:10:18*
%MOIN*%
G04 Gerber Fmt 3.4, Leading zero omitted, Abs format*
%FSLAX34Y34*%
G01*
G70*
G90*
G04 APERTURE LIST*
%ADD10C,0.00590551*%
%ADD11R,0.0579X0.0165*%
%ADD12R,0.045X0.025*%
%ADD13R,0.0236X0.0157*%
%ADD14R,0.0157X0.0236*%
%ADD15C,0.0433071*%
%ADD16C,0.06*%
G04 APERTURE END LIST*
G54D10*
G54D11*
X1117Y-323D03*
X1117Y-67D03*
X1117Y189D03*
X1117Y445D03*
X-1085Y-1087D03*
X1117Y-1091D03*
X1117Y-835D03*
X1117Y-579D03*
X-1087Y701D03*
X-1087Y445D03*
X-1087Y189D03*
X-1087Y-67D03*
X-1087Y-323D03*
X-1087Y-579D03*
X1117Y701D03*
X-1085Y-835D03*
X1117Y-1347D03*
X1117Y957D03*
X-1087Y957D03*
X-1087Y-1347D03*
G54D12*
X-1405Y3850D03*
X-1405Y4450D03*
X2715Y-3395D03*
X2715Y-3995D03*
X3680Y-1305D03*
X3680Y-705D03*
X3145Y1555D03*
X3145Y2155D03*
X1390Y3870D03*
X1390Y4470D03*
X-2720Y-4000D03*
X-2720Y-3400D03*
X-3685Y-710D03*
X-3685Y-1310D03*
X-3150Y1555D03*
X-3150Y2155D03*
G54D13*
X-635Y3978D03*
X-635Y4332D03*
G54D14*
X688Y2455D03*
X1042Y2455D03*
G54D13*
X565Y3978D03*
X565Y4332D03*
X-1935Y-3922D03*
X-1935Y-3568D03*
X2315Y1678D03*
X2315Y2032D03*
X-2900Y-1177D03*
X-2900Y-823D03*
X2815Y-1172D03*
X2815Y-818D03*
X1915Y-3518D03*
X1915Y-3872D03*
X-2385Y2032D03*
X-2385Y1678D03*
G54D14*
X-558Y-3045D03*
X-912Y-3045D03*
X-1012Y2455D03*
X-658Y2455D03*
X-473Y-2050D03*
X-827Y-2050D03*
X-2577Y3300D03*
X-2223Y3300D03*
X-2212Y-2345D03*
X-1858Y-2345D03*
X577Y-2050D03*
X223Y-2050D03*
X2442Y3205D03*
X2088Y3205D03*
X992Y-3045D03*
X638Y-3045D03*
X2977Y-1900D03*
X2623Y-1900D03*
X2677Y-2700D03*
X2323Y-2700D03*
G54D15*
X-4722Y-1591D03*
X-4678Y-1093D03*
X-4635Y-595D03*
X-4591Y-96D03*
X-4547Y401D03*
X3690Y2888D03*
X3440Y3321D03*
X-4378Y1358D03*
X-4291Y1851D03*
G54D10*
G36*
X4223Y-3599D02*
X3659Y-3394D01*
X3864Y-2830D01*
X4428Y-3035D01*
X4223Y-3599D01*
X4223Y-3599D01*
G37*
G54D16*
X4386Y-2275D03*
M02*
