M48
;DRILL file {Pcbnew (2013-07-07 BZR 4022)-stable} date 16-09-2014 20:10:19
;FORMAT={-:-/ absolute / inch / decimal}
FMAT,2
INCH,TZ
T1C0.025
T2C0.028
T3C0.040
%
G90
G05
M72
T1
X-0.2785Y0.2973
X-0.2352Y-0.0707
X-0.2215Y-0.1418
X-0.2068Y-0.0007
X-0.1965Y0.2011
X-0.1618Y0.0172
X-0.1613Y-0.0853
X-0.1576Y-0.3802
X-0.1541Y-0.2271
X-0.1481Y0.1592
X-0.1456Y-0.1767
X-0.1326Y0.2285
X-0.0491Y0.1292
X0.0171Y-0.1555
X0.0323Y-0.3173
X0.0688Y0.3351
X0.1331Y-0.2827
X0.1364Y-0.2416
X0.1532Y0.1533
X0.2127Y-0.214
X0.2874Y0.2517
X0.3144Y-0.0612
X0.368Y-0.0344
T2
X-0.4722Y-0.1591
X-0.4679Y-0.1093
X-0.4635Y-0.0595
X-0.4591Y-0.0097
X-0.4548Y0.0401
X-0.4378Y0.1359
X-0.4292Y0.1851
X0.344Y0.3322
X0.369Y0.2888
T3
X0.4044Y-0.3215
X0.4386Y-0.2275
T0
M30
