G04 (created by PCBNEW (2013-07-07 BZR 4022)-stable) date 16-09-2014 20:10:18*
%MOIN*%
G04 Gerber Fmt 3.4, Leading zero omitted, Abs format*
%FSLAX34Y34*%
G01*
G70*
G90*
G04 APERTURE LIST*
%ADD10C,0.00590551*%
%ADD11C,0.000393701*%
G04 APERTURE END LIST*
G54D10*
G54D11*
X-4930Y-2984D02*
X-4263Y-2739D01*
X-4263Y-2739D02*
X-4253Y-2735D01*
X-4253Y-2735D02*
X-4244Y-2731D01*
X-4244Y-2731D02*
X-4234Y-2727D01*
X-4234Y-2727D02*
X-4225Y-2722D01*
X-4225Y-2722D02*
X-4216Y-2717D01*
X-4216Y-2717D02*
X-4207Y-2712D01*
X-4207Y-2712D02*
X-4199Y-2706D01*
X-4199Y-2706D02*
X-4190Y-2700D01*
X-4190Y-2700D02*
X-4182Y-2694D01*
X-4182Y-2694D02*
X-4174Y-2687D01*
X-4174Y-2687D02*
X-4166Y-2681D01*
X-4166Y-2681D02*
X-4159Y-2673D01*
X-4159Y-2673D02*
X-4152Y-2666D01*
X-4152Y-2666D02*
X-4145Y-2659D01*
X-4145Y-2659D02*
X-4138Y-2651D01*
X-4138Y-2651D02*
X-4132Y-2643D01*
X-4132Y-2643D02*
X-4125Y-2635D01*
X-4125Y-2635D02*
X-4119Y-2626D01*
X-4119Y-2626D02*
X-4114Y-2617D01*
X-4114Y-2617D02*
X-4109Y-2609D01*
X-4109Y-2609D02*
X-4104Y-2600D01*
X-4104Y-2600D02*
X-4099Y-2590D01*
X-4099Y-2590D02*
X-4095Y-2581D01*
X-4095Y-2581D02*
X-4091Y-2572D01*
X-4091Y-2572D02*
X-4087Y-2562D01*
X-4087Y-2562D02*
X-4084Y-2552D01*
X-4084Y-2552D02*
X-4081Y-2542D01*
X-4081Y-2542D02*
X-4078Y-2532D01*
X-4078Y-2532D02*
X-4076Y-2522D01*
X-4076Y-2522D02*
X-4074Y-2512D01*
X-4074Y-2512D02*
X-4072Y-2502D01*
X-4072Y-2502D02*
X-4071Y-2492D01*
X-4071Y-2492D02*
X-4070Y-2482D01*
X-4070Y-2482D02*
X-4070Y-2471D01*
X-4070Y-2471D02*
X-4070Y-2461D01*
X-4070Y-2461D02*
X-4070Y-2451D01*
X-4070Y-2451D02*
X-4070Y-2440D01*
X-4070Y-2440D02*
X-4071Y-2430D01*
X-4071Y-2430D02*
X-4073Y-2420D01*
X-4073Y-2420D02*
X-4074Y-2410D01*
X-4074Y-2410D02*
X-4076Y-2400D01*
X-4076Y-2400D02*
X-4078Y-2390D01*
X-4078Y-2390D02*
X-4081Y-2380D01*
X-4081Y-2380D02*
X-4084Y-2370D01*
X-4084Y-2370D02*
X-4088Y-2360D01*
X-4088Y-2360D02*
X-4091Y-2350D01*
X-4091Y-2350D02*
X-4095Y-2341D01*
X-4095Y-2341D02*
X-4100Y-2332D01*
X-4100Y-2332D02*
X-4104Y-2323D01*
X-4104Y-2323D02*
X-4109Y-2314D01*
X-4109Y-2314D02*
X-4115Y-2305D01*
X-4115Y-2305D02*
X-4120Y-2296D01*
X-4120Y-2296D02*
X-4126Y-2288D01*
X-4126Y-2288D02*
X-4133Y-2279D01*
X-4133Y-2279D02*
X-4139Y-2271D01*
X-4139Y-2271D02*
X-4146Y-2264D01*
X-4146Y-2264D02*
X-4153Y-2256D01*
X-4153Y-2256D02*
X-4160Y-2249D01*
X-4160Y-2249D02*
X-4168Y-2242D01*
X-4168Y-2242D02*
X-4176Y-2235D01*
X-4176Y-2235D02*
X-4184Y-2229D01*
X-4184Y-2229D02*
X-4192Y-2223D01*
X-4192Y-2223D02*
X-4200Y-2217D01*
X-4200Y-2217D02*
X-4209Y-2211D01*
X-4209Y-2211D02*
X-4218Y-2206D01*
X-4218Y-2206D02*
X-4227Y-2201D01*
X-4227Y-2201D02*
X-4236Y-2196D01*
X-4236Y-2196D02*
X-4245Y-2192D01*
X-4245Y-2192D02*
X-4255Y-2188D01*
X-4255Y-2188D02*
X-4264Y-2184D01*
X-4264Y-2184D02*
X-4274Y-2181D01*
X-4274Y-2181D02*
X-4284Y-2178D01*
X-4284Y-2178D02*
X-4294Y-2175D01*
X-4294Y-2175D02*
X-4304Y-2173D01*
X-4304Y-2173D02*
X-4314Y-2171D01*
X-4314Y-2171D02*
X-4324Y-2169D01*
X-4324Y-2169D02*
X-4334Y-2168D01*
X-4334Y-2168D02*
X-4345Y-2167D01*
X-4345Y-2167D02*
X-4355Y-2167D01*
X-4355Y-2167D02*
X-4365Y-2167D01*
X-4365Y-2167D02*
X-4376Y-2167D01*
X-4376Y-2167D02*
X-4386Y-2167D01*
X-4386Y-2167D02*
X-4396Y-2168D01*
X-4396Y-2168D02*
X-4406Y-2169D01*
X-4406Y-2169D02*
X-4417Y-2171D01*
X-4417Y-2171D02*
X-4427Y-2173D01*
X-4427Y-2173D02*
X-4437Y-2175D01*
X-4437Y-2175D02*
X-4447Y-2178D01*
X-4447Y-2178D02*
X-4456Y-2181D01*
X-4456Y-2181D02*
X-4466Y-2184D01*
X-4466Y-2184D02*
X-5105Y-2418D01*
X-5105Y-2418D02*
X-5127Y-2325D01*
X-5127Y-2325D02*
X-5146Y-2232D01*
X-5146Y-2232D02*
X-5164Y-2137D01*
X-5164Y-2137D02*
X-5181Y-2042D01*
X-5181Y-2042D02*
X-5195Y-1945D01*
X-5195Y-1945D02*
X-5209Y-1847D01*
X-5209Y-1847D02*
X-5230Y-1648D01*
X-5230Y-1648D02*
X-5245Y-1445D01*
X-5245Y-1445D02*
X-5254Y-1237D01*
X-5254Y-1237D02*
X-5256Y-1024D01*
X-5256Y-1024D02*
X-5253Y-806D01*
X-5253Y-806D02*
X-5245Y-614D01*
X-5245Y-614D02*
X-5233Y-418D01*
X-5233Y-418D02*
X-5216Y-219D01*
X-5216Y-219D02*
X-5194Y-18D01*
X-5194Y-18D02*
X-5168Y185D01*
X-5168Y185D02*
X-5137Y390D01*
X-5137Y390D02*
X-5101Y596D01*
X-5101Y596D02*
X-5060Y803D01*
X-5060Y803D02*
X-5014Y1010D01*
X-5014Y1010D02*
X-4964Y1217D01*
X-4964Y1217D02*
X-4908Y1423D01*
X-4908Y1423D02*
X-4847Y1629D01*
X-4847Y1629D02*
X-4781Y1832D01*
X-4781Y1832D02*
X-4709Y2034D01*
X-4709Y2034D02*
X-4632Y2233D01*
X-4632Y2233D02*
X-4550Y2430D01*
X-4550Y2430D02*
X-4463Y2623D01*
X-4463Y2623D02*
X-4370Y2812D01*
X-4370Y2812D02*
X-4272Y2998D01*
X-4272Y2998D02*
X-4169Y3180D01*
X-4169Y3180D02*
X-4062Y3357D01*
X-4062Y3357D02*
X-3949Y3530D01*
X-3949Y3530D02*
X-3833Y3698D01*
X-3833Y3698D02*
X-3712Y3861D01*
X-3712Y3861D02*
X-3587Y4019D01*
X-3587Y4019D02*
X-3458Y4172D01*
X-3458Y4172D02*
X-3325Y4318D01*
X-3325Y4318D02*
X-3189Y4459D01*
X-3189Y4459D02*
X-3120Y4527D01*
X-3120Y4527D02*
X-3050Y4594D01*
X-3050Y4594D02*
X-2979Y4659D01*
X-2979Y4659D02*
X-2907Y4722D01*
X-2907Y4722D02*
X-2834Y4784D01*
X-2834Y4784D02*
X-2761Y4844D01*
X-2761Y4844D02*
X-2687Y4902D01*
X-2687Y4902D02*
X-2612Y4959D01*
X-2612Y4959D02*
X-2537Y5014D01*
X-2537Y5014D02*
X-2461Y5067D01*
X-2461Y5067D02*
X-2384Y5118D01*
X-2384Y5118D02*
X-2307Y5167D01*
X-2307Y5167D02*
X-2229Y5215D01*
X-2229Y5215D02*
X-2150Y5261D01*
X-2150Y5261D02*
X-2072Y5305D01*
X-2072Y5305D02*
X-1992Y5348D01*
X-1992Y5348D02*
X-1912Y5388D01*
X-1912Y5388D02*
X-1832Y5427D01*
X-1832Y5427D02*
X-1751Y5464D01*
X-1751Y5464D02*
X-1670Y5500D01*
X-1670Y5500D02*
X-1588Y5533D01*
X-1588Y5533D02*
X-1506Y5565D01*
X-1506Y5565D02*
X-1424Y5595D01*
X-1424Y5595D02*
X-1342Y5624D01*
X-1342Y5624D02*
X-1259Y5650D01*
X-1259Y5650D02*
X-1176Y5675D01*
X-1176Y5675D02*
X-1093Y5698D01*
X-1093Y5698D02*
X-1009Y5720D01*
X-1009Y5720D02*
X-926Y5740D01*
X-926Y5740D02*
X-842Y5757D01*
X-842Y5757D02*
X-758Y5774D01*
X-758Y5774D02*
X-674Y5788D01*
X-674Y5788D02*
X-590Y5801D01*
X-590Y5801D02*
X-506Y5812D01*
X-506Y5812D02*
X-422Y5821D01*
X-422Y5821D02*
X-338Y5828D01*
X-338Y5828D02*
X-254Y5834D01*
X-254Y5834D02*
X-171Y5838D01*
X-171Y5838D02*
X-87Y5841D01*
X-87Y5841D02*
X-3Y5841D01*
X-3Y5841D02*
X3Y5841D01*
X3Y5841D02*
X156Y5837D01*
X156Y5837D02*
X308Y5828D01*
X308Y5828D02*
X460Y5814D01*
X460Y5814D02*
X611Y5794D01*
X611Y5794D02*
X761Y5770D01*
X761Y5770D02*
X911Y5740D01*
X911Y5740D02*
X1059Y5705D01*
X1059Y5705D02*
X1206Y5665D01*
X1206Y5665D02*
X1351Y5619D01*
X1351Y5619D02*
X1495Y5569D01*
X1495Y5569D02*
X1637Y5514D01*
X1637Y5514D02*
X1778Y5454D01*
X1778Y5454D02*
X1916Y5389D01*
X1916Y5389D02*
X2051Y5320D01*
X2051Y5320D02*
X2184Y5246D01*
X2184Y5246D02*
X2315Y5167D01*
X2315Y5167D02*
X2443Y5084D01*
X2443Y5084D02*
X2567Y4996D01*
X2567Y4996D02*
X2689Y4905D01*
X2689Y4905D02*
X2807Y4809D01*
X2807Y4809D02*
X2923Y4709D01*
X2923Y4709D02*
X2418Y4339D01*
X2418Y4339D02*
X2409Y4332D01*
X2409Y4332D02*
X2401Y4326D01*
X2401Y4326D02*
X2394Y4319D01*
X2394Y4319D02*
X2386Y4312D01*
X2386Y4312D02*
X2379Y4305D01*
X2379Y4305D02*
X2372Y4297D01*
X2372Y4297D02*
X2365Y4290D01*
X2365Y4290D02*
X2359Y4281D01*
X2359Y4281D02*
X2353Y4273D01*
X2353Y4273D02*
X2347Y4265D01*
X2347Y4265D02*
X2341Y4256D01*
X2341Y4256D02*
X2336Y4247D01*
X2336Y4247D02*
X2331Y4238D01*
X2331Y4238D02*
X2326Y4229D01*
X2326Y4229D02*
X2322Y4220D01*
X2322Y4220D02*
X2318Y4210D01*
X2318Y4210D02*
X2314Y4201D01*
X2314Y4201D02*
X2311Y4191D01*
X2311Y4191D02*
X2308Y4181D01*
X2308Y4181D02*
X2305Y4171D01*
X2305Y4171D02*
X2303Y4161D01*
X2303Y4161D02*
X2301Y4151D01*
X2301Y4151D02*
X2300Y4141D01*
X2300Y4141D02*
X2298Y4131D01*
X2298Y4131D02*
X2297Y4120D01*
X2297Y4120D02*
X2297Y4110D01*
X2297Y4110D02*
X2297Y4100D01*
X2297Y4100D02*
X2297Y4090D01*
X2297Y4090D02*
X2298Y4079D01*
X2298Y4079D02*
X2298Y4069D01*
X2298Y4069D02*
X2300Y4059D01*
X2300Y4059D02*
X2301Y4049D01*
X2301Y4049D02*
X2303Y4039D01*
X2303Y4039D02*
X2306Y4029D01*
X2306Y4029D02*
X2308Y4019D01*
X2308Y4019D02*
X2311Y4009D01*
X2311Y4009D02*
X2315Y3999D01*
X2315Y3999D02*
X2318Y3989D01*
X2318Y3989D02*
X2322Y3980D01*
X2322Y3980D02*
X2327Y3971D01*
X2327Y3971D02*
X2332Y3962D01*
X2332Y3962D02*
X2337Y3953D01*
X2337Y3953D02*
X2342Y3944D01*
X2342Y3944D02*
X2347Y3935D01*
X2347Y3935D02*
X2353Y3927D01*
X2353Y3927D02*
X2360Y3918D01*
X2360Y3918D02*
X2366Y3910D01*
X2366Y3910D02*
X2373Y3903D01*
X2373Y3903D02*
X2380Y3895D01*
X2380Y3895D02*
X2387Y3888D01*
X2387Y3888D02*
X2395Y3881D01*
X2395Y3881D02*
X2402Y3874D01*
X2402Y3874D02*
X2410Y3868D01*
X2410Y3868D02*
X2419Y3862D01*
X2419Y3862D02*
X2427Y3856D01*
X2427Y3856D02*
X2436Y3850D01*
X2436Y3850D02*
X2444Y3845D01*
X2444Y3845D02*
X2453Y3840D01*
X2453Y3840D02*
X2463Y3835D01*
X2463Y3835D02*
X2472Y3831D01*
X2472Y3831D02*
X2481Y3827D01*
X2481Y3827D02*
X2491Y3823D01*
X2491Y3823D02*
X2501Y3820D01*
X2501Y3820D02*
X2511Y3817D01*
X2511Y3817D02*
X2521Y3814D01*
X2521Y3814D02*
X2531Y3812D01*
X2531Y3812D02*
X2541Y3810D01*
X2541Y3810D02*
X2551Y3808D01*
X2551Y3808D02*
X2561Y3807D01*
X2561Y3807D02*
X2571Y3806D01*
X2571Y3806D02*
X2582Y3805D01*
X2582Y3805D02*
X2592Y3805D01*
X2592Y3805D02*
X2602Y3805D01*
X2602Y3805D02*
X2612Y3806D01*
X2612Y3806D02*
X2623Y3807D01*
X2623Y3807D02*
X2633Y3808D01*
X2633Y3808D02*
X2643Y3810D01*
X2643Y3810D02*
X2653Y3812D01*
X2653Y3812D02*
X2663Y3814D01*
X2663Y3814D02*
X2673Y3817D01*
X2673Y3817D02*
X2683Y3820D01*
X2683Y3820D02*
X2693Y3823D01*
X2693Y3823D02*
X2702Y3827D01*
X2702Y3827D02*
X2712Y3831D01*
X2712Y3831D02*
X2721Y3835D01*
X2721Y3835D02*
X2730Y3840D01*
X2730Y3840D02*
X2739Y3845D01*
X2739Y3845D02*
X2748Y3850D01*
X2748Y3850D02*
X2757Y3855D01*
X2757Y3855D02*
X2765Y3861D01*
X2765Y3861D02*
X3354Y4288D01*
X3354Y4288D02*
X3443Y4188D01*
X3443Y4188D02*
X3531Y4087D01*
X3531Y4087D02*
X3617Y3982D01*
X3617Y3982D02*
X3701Y3876D01*
X3701Y3876D02*
X3783Y3767D01*
X3783Y3767D02*
X3863Y3655D01*
X3863Y3655D02*
X3942Y3542D01*
X3942Y3542D02*
X4018Y3426D01*
X4018Y3426D02*
X4092Y3308D01*
X4092Y3308D02*
X4164Y3188D01*
X4164Y3188D02*
X4234Y3066D01*
X4234Y3066D02*
X4302Y2942D01*
X4302Y2942D02*
X4368Y2817D01*
X4368Y2817D02*
X4431Y2689D01*
X4431Y2689D02*
X4492Y2560D01*
X4492Y2560D02*
X4550Y2430D01*
X4550Y2430D02*
X4632Y2233D01*
X4632Y2233D02*
X4709Y2034D01*
X4709Y2034D02*
X4781Y1832D01*
X4781Y1832D02*
X4847Y1629D01*
X4847Y1629D02*
X4908Y1423D01*
X4908Y1423D02*
X4964Y1217D01*
X4964Y1217D02*
X5014Y1010D01*
X5014Y1010D02*
X5060Y803D01*
X5060Y803D02*
X5101Y596D01*
X5101Y596D02*
X5137Y390D01*
X5137Y390D02*
X5168Y185D01*
X5168Y185D02*
X5194Y-18D01*
X5194Y-18D02*
X5216Y-219D01*
X5216Y-219D02*
X5233Y-418D01*
X5233Y-418D02*
X5245Y-614D01*
X5245Y-614D02*
X5253Y-806D01*
X5253Y-806D02*
X5256Y-995D01*
X5256Y-995D02*
X5255Y-1180D01*
X5255Y-1180D02*
X5249Y-1361D01*
X5249Y-1361D02*
X5239Y-1539D01*
X5239Y-1539D02*
X5224Y-1713D01*
X5224Y-1713D02*
X5204Y-1884D01*
X5204Y-1884D02*
X5179Y-2052D01*
X5179Y-2052D02*
X5149Y-2216D01*
X5149Y-2216D02*
X5115Y-2378D01*
X5115Y-2378D02*
X5075Y-2537D01*
X5075Y-2537D02*
X5053Y-2615D01*
X5053Y-2615D02*
X5030Y-2692D01*
X5030Y-2692D02*
X5006Y-2769D01*
X5006Y-2769D02*
X4980Y-2846D01*
X4980Y-2846D02*
X4953Y-2921D01*
X4953Y-2921D02*
X4925Y-2996D01*
X4925Y-2996D02*
X4896Y-3071D01*
X4896Y-3071D02*
X4865Y-3144D01*
X4865Y-3144D02*
X4833Y-3218D01*
X4833Y-3218D02*
X4799Y-3290D01*
X4799Y-3290D02*
X4764Y-3362D01*
X4764Y-3362D02*
X4728Y-3434D01*
X4728Y-3434D02*
X4690Y-3505D01*
X4690Y-3505D02*
X4651Y-3575D01*
X4651Y-3575D02*
X4611Y-3645D01*
X4611Y-3645D02*
X4569Y-3714D01*
X4569Y-3714D02*
X4526Y-3782D01*
X4526Y-3782D02*
X4482Y-3850D01*
X4482Y-3850D02*
X4436Y-3917D01*
X4436Y-3917D02*
X4389Y-3984D01*
X4389Y-3984D02*
X4340Y-4049D01*
X4340Y-4049D02*
X4290Y-4114D01*
X4290Y-4114D02*
X4239Y-4178D01*
X4239Y-4178D02*
X4186Y-4241D01*
X4186Y-4241D02*
X4132Y-4303D01*
X4132Y-4303D02*
X4076Y-4365D01*
X4076Y-4365D02*
X4019Y-4425D01*
X4019Y-4425D02*
X3961Y-4484D01*
X3961Y-4484D02*
X3901Y-4543D01*
X3901Y-4543D02*
X3840Y-4600D01*
X3840Y-4600D02*
X3778Y-4656D01*
X3778Y-4656D02*
X3714Y-4711D01*
X3714Y-4711D02*
X3649Y-4765D01*
X3649Y-4765D02*
X3582Y-4818D01*
X3582Y-4818D02*
X3514Y-4870D01*
X3514Y-4870D02*
X3444Y-4920D01*
X3444Y-4920D02*
X3373Y-4970D01*
X3373Y-4970D02*
X3301Y-5018D01*
X3301Y-5018D02*
X3227Y-5064D01*
X3227Y-5064D02*
X3152Y-5110D01*
X3152Y-5110D02*
X3076Y-5154D01*
X3076Y-5154D02*
X2998Y-5196D01*
X2998Y-5196D02*
X2918Y-5238D01*
X2918Y-5238D02*
X2838Y-5277D01*
X2838Y-5277D02*
X2753Y-5317D01*
X2753Y-5317D02*
X2666Y-5355D01*
X2666Y-5355D02*
X2578Y-5392D01*
X2578Y-5392D02*
X2489Y-5427D01*
X2489Y-5427D02*
X2347Y-4881D01*
X2347Y-4881D02*
X2345Y-4871D01*
X2345Y-4871D02*
X2342Y-4861D01*
X2342Y-4861D02*
X2338Y-4852D01*
X2338Y-4852D02*
X2335Y-4842D01*
X2335Y-4842D02*
X2330Y-4833D01*
X2330Y-4833D02*
X2326Y-4824D01*
X2326Y-4824D02*
X2321Y-4815D01*
X2321Y-4815D02*
X2316Y-4806D01*
X2316Y-4806D02*
X2311Y-4797D01*
X2311Y-4797D02*
X2305Y-4789D01*
X2305Y-4789D02*
X2300Y-4780D01*
X2300Y-4780D02*
X2293Y-4772D01*
X2293Y-4772D02*
X2287Y-4764D01*
X2287Y-4764D02*
X2280Y-4757D01*
X2280Y-4757D02*
X2273Y-4749D01*
X2273Y-4749D02*
X2266Y-4742D01*
X2266Y-4742D02*
X2258Y-4735D01*
X2258Y-4735D02*
X2251Y-4728D01*
X2251Y-4728D02*
X2243Y-4722D01*
X2243Y-4722D02*
X2235Y-4716D01*
X2235Y-4716D02*
X2226Y-4710D01*
X2226Y-4710D02*
X2218Y-4704D01*
X2218Y-4704D02*
X2209Y-4699D01*
X2209Y-4699D02*
X2200Y-4694D01*
X2200Y-4694D02*
X2191Y-4690D01*
X2191Y-4690D02*
X2182Y-4685D01*
X2182Y-4685D02*
X2172Y-4681D01*
X2172Y-4681D02*
X2163Y-4678D01*
X2163Y-4678D02*
X2153Y-4674D01*
X2153Y-4674D02*
X2143Y-4671D01*
X2143Y-4671D02*
X2134Y-4669D01*
X2134Y-4669D02*
X2124Y-4666D01*
X2124Y-4666D02*
X2114Y-4664D01*
X2114Y-4664D02*
X2104Y-4663D01*
X2104Y-4663D02*
X2093Y-4662D01*
X2093Y-4662D02*
X2083Y-4661D01*
X2083Y-4661D02*
X2073Y-4660D01*
X2073Y-4660D02*
X2063Y-4660D01*
X2063Y-4660D02*
X2053Y-4660D01*
X2053Y-4660D02*
X2042Y-4660D01*
X2042Y-4660D02*
X2032Y-4661D01*
X2032Y-4661D02*
X2022Y-4662D01*
X2022Y-4662D02*
X2012Y-4664D01*
X2012Y-4664D02*
X2002Y-4666D01*
X2002Y-4666D02*
X1992Y-4668D01*
X1992Y-4668D02*
X1982Y-4671D01*
X1982Y-4671D02*
X1972Y-4674D01*
X1972Y-4674D02*
X1963Y-4677D01*
X1963Y-4677D02*
X1953Y-4680D01*
X1953Y-4680D02*
X1944Y-4684D01*
X1944Y-4684D02*
X1935Y-4689D01*
X1935Y-4689D02*
X1925Y-4693D01*
X1925Y-4693D02*
X1916Y-4698D01*
X1916Y-4698D02*
X1908Y-4703D01*
X1908Y-4703D02*
X1899Y-4709D01*
X1899Y-4709D02*
X1891Y-4714D01*
X1891Y-4714D02*
X1882Y-4720D01*
X1882Y-4720D02*
X1874Y-4727D01*
X1874Y-4727D02*
X1867Y-4733D01*
X1867Y-4733D02*
X1859Y-4740D01*
X1859Y-4740D02*
X1852Y-4747D01*
X1852Y-4747D02*
X1845Y-4755D01*
X1845Y-4755D02*
X1838Y-4762D01*
X1838Y-4762D02*
X1831Y-4770D01*
X1831Y-4770D02*
X1825Y-4778D01*
X1825Y-4778D02*
X1819Y-4786D01*
X1819Y-4786D02*
X1814Y-4795D01*
X1814Y-4795D02*
X1808Y-4804D01*
X1808Y-4804D02*
X1803Y-4812D01*
X1803Y-4812D02*
X1798Y-4821D01*
X1798Y-4821D02*
X1794Y-4831D01*
X1794Y-4831D02*
X1790Y-4840D01*
X1790Y-4840D02*
X1786Y-4849D01*
X1786Y-4849D02*
X1782Y-4859D01*
X1782Y-4859D02*
X1779Y-4869D01*
X1779Y-4869D02*
X1776Y-4879D01*
X1776Y-4879D02*
X1774Y-4888D01*
X1774Y-4888D02*
X1772Y-4898D01*
X1772Y-4898D02*
X1770Y-4908D01*
X1770Y-4908D02*
X1769Y-4919D01*
X1769Y-4919D02*
X1768Y-4929D01*
X1768Y-4929D02*
X1767Y-4939D01*
X1767Y-4939D02*
X1766Y-4949D01*
X1766Y-4949D02*
X1766Y-4959D01*
X1766Y-4959D02*
X1767Y-4969D01*
X1767Y-4969D02*
X1767Y-4980D01*
X1767Y-4980D02*
X1768Y-4990D01*
X1768Y-4990D02*
X1770Y-5000D01*
X1770Y-5000D02*
X1771Y-5010D01*
X1771Y-5010D02*
X1774Y-5020D01*
X1774Y-5020D02*
X1776Y-5030D01*
X1776Y-5030D02*
X1927Y-5608D01*
X1927Y-5608D02*
X1691Y-5666D01*
X1691Y-5666D02*
X1452Y-5717D01*
X1452Y-5717D02*
X1212Y-5760D01*
X1212Y-5760D02*
X971Y-5795D01*
X971Y-5795D02*
X729Y-5823D01*
X729Y-5823D02*
X486Y-5843D01*
X486Y-5843D02*
X243Y-5855D01*
X243Y-5855D02*
X0Y-5859D01*
X0Y-5859D02*
X-163Y-5857D01*
X-163Y-5857D02*
X-332Y-5851D01*
X-332Y-5851D02*
X-506Y-5841D01*
X-506Y-5841D02*
X-683Y-5827D01*
X-683Y-5827D02*
X-863Y-5808D01*
X-863Y-5808D02*
X-1045Y-5785D01*
X-1045Y-5785D02*
X-1230Y-5757D01*
X-1230Y-5757D02*
X-1414Y-5725D01*
X-1414Y-5725D02*
X-1600Y-5687D01*
X-1600Y-5687D02*
X-1784Y-5645D01*
X-1784Y-5645D02*
X-1967Y-5597D01*
X-1967Y-5597D02*
X-2148Y-5544D01*
X-2148Y-5544D02*
X-2327Y-5486D01*
X-2327Y-5486D02*
X-2414Y-5455D01*
X-2414Y-5455D02*
X-2501Y-5422D01*
X-2501Y-5422D02*
X-2587Y-5388D01*
X-2587Y-5388D02*
X-2672Y-5353D01*
X-2672Y-5353D02*
X-2755Y-5316D01*
X-2755Y-5316D02*
X-2838Y-5277D01*
X-2838Y-5277D02*
X-2918Y-5238D01*
X-2918Y-5238D02*
X-2998Y-5196D01*
X-2998Y-5196D02*
X-3076Y-5154D01*
X-3076Y-5154D02*
X-3152Y-5110D01*
X-3152Y-5110D02*
X-3227Y-5064D01*
X-3227Y-5064D02*
X-3301Y-5018D01*
X-3301Y-5018D02*
X-3373Y-4970D01*
X-3373Y-4970D02*
X-3444Y-4920D01*
X-3444Y-4920D02*
X-3514Y-4870D01*
X-3514Y-4870D02*
X-3582Y-4818D01*
X-3582Y-4818D02*
X-3649Y-4765D01*
X-3649Y-4765D02*
X-3714Y-4711D01*
X-3714Y-4711D02*
X-3778Y-4656D01*
X-3778Y-4656D02*
X-3840Y-4600D01*
X-3840Y-4600D02*
X-3901Y-4543D01*
X-3901Y-4543D02*
X-3961Y-4484D01*
X-3961Y-4484D02*
X-4019Y-4425D01*
X-4019Y-4425D02*
X-4076Y-4365D01*
X-4076Y-4365D02*
X-4132Y-4303D01*
X-4132Y-4303D02*
X-4186Y-4241D01*
X-4186Y-4241D02*
X-4239Y-4178D01*
X-4239Y-4178D02*
X-4290Y-4114D01*
X-4290Y-4114D02*
X-4340Y-4049D01*
X-4340Y-4049D02*
X-4389Y-3984D01*
X-4389Y-3984D02*
X-4436Y-3917D01*
X-4436Y-3917D02*
X-4482Y-3850D01*
X-4482Y-3850D02*
X-4526Y-3782D01*
X-4526Y-3782D02*
X-4569Y-3714D01*
X-4569Y-3714D02*
X-4611Y-3645D01*
X-4611Y-3645D02*
X-4651Y-3575D01*
X-4651Y-3575D02*
X-4690Y-3505D01*
X-4690Y-3505D02*
X-4728Y-3434D01*
X-4728Y-3434D02*
X-4783Y-3323D01*
X-4783Y-3323D02*
X-4835Y-3212D01*
X-4835Y-3212D02*
X-4884Y-3099D01*
X-4884Y-3099D02*
X-4930Y-2984D01*
M02*
