G04 (created by PCBNEW (2013-07-07 BZR 4022)-stable) date 16-09-2014 20:10:18*
%MOIN*%
G04 Gerber Fmt 3.4, Leading zero omitted, Abs format*
%FSLAX34Y34*%
G01*
G70*
G90*
G04 APERTURE LIST*
%ADD10C,0.00590551*%
%ADD11C,0.011811*%
G04 APERTURE END LIST*
G54D10*
G54D11*
X1174Y2667D02*
X1202Y2639D01*
X1287Y2610D01*
X1343Y2610D01*
X1427Y2639D01*
X1484Y2695D01*
X1512Y2751D01*
X1540Y2864D01*
X1540Y2948D01*
X1512Y3060D01*
X1484Y3117D01*
X1427Y3173D01*
X1343Y3201D01*
X1287Y3201D01*
X1202Y3173D01*
X1174Y3145D01*
X837Y2610D02*
X893Y2639D01*
X921Y2667D01*
X949Y2723D01*
X949Y2892D01*
X921Y2948D01*
X893Y2976D01*
X837Y3004D01*
X753Y3004D01*
X696Y2976D01*
X668Y2948D01*
X640Y2892D01*
X640Y2723D01*
X668Y2667D01*
X696Y2639D01*
X753Y2610D01*
X837Y2610D01*
X303Y2610D02*
X359Y2639D01*
X387Y2667D01*
X415Y2723D01*
X415Y2892D01*
X387Y2948D01*
X359Y2976D01*
X303Y3004D01*
X218Y3004D01*
X162Y2976D01*
X134Y2948D01*
X106Y2892D01*
X106Y2723D01*
X134Y2667D01*
X162Y2639D01*
X218Y2610D01*
X303Y2610D01*
X-146Y2610D02*
X-146Y3201D01*
X-203Y2835D02*
X-371Y2610D01*
X-371Y3004D02*
X-146Y2779D01*
X-709Y2610D02*
X-653Y2639D01*
X-624Y2667D01*
X-596Y2723D01*
X-596Y2892D01*
X-624Y2948D01*
X-653Y2976D01*
X-709Y3004D01*
X-793Y3004D01*
X-849Y2976D01*
X-878Y2948D01*
X-906Y2892D01*
X-906Y2723D01*
X-878Y2667D01*
X-849Y2639D01*
X-793Y2610D01*
X-709Y2610D01*
X-1243Y2610D02*
X-1187Y2639D01*
X-1159Y2667D01*
X-1131Y2723D01*
X-1131Y2892D01*
X-1159Y2948D01*
X-1187Y2976D01*
X-1243Y3004D01*
X-1327Y3004D01*
X-1384Y2976D01*
X-1412Y2948D01*
X-1440Y2892D01*
X-1440Y2723D01*
X-1412Y2667D01*
X-1384Y2639D01*
X-1327Y2610D01*
X-1243Y2610D01*
M02*
